<?xml version="1.0" encoding="UTF-8"?>
<svg version="1.1" xmlns="http://www.w3.org/2000/svg" width="32" height="32">
<path d="M0 0 C2.9375 1.5 2.9375 1.5 5 4 C6.24947231 7.93748182 6.2932602 11.06156737 5.0625 15 C4.5365625 15.99 4.5365625 15.99 4 17 C4.94875 17.7425 5.8975 18.485 6.875 19.25 C9.3262021 21.31386592 11.04773611 22.85752915 12 26 C12.125 29.25 12.125 29.25 12 32 C11.01 32 10.02 32 9 32 C8.78085937 31.38511719 8.56171875 30.77023438 8.3359375 30.13671875 C6.78485277 26.18334426 5.69278452 23.54778311 2.3125 20.875 C-2.07044134 19.71724191 -5.64558247 19.69046115 -10 21 C-14.16415397 24.10096572 -15.7241042 27.01240733 -17 32 C-17.99 32 -18.98 32 -20 32 C-20.50731767 26.67316448 -19.26718004 24.17473006 -16 20 C-14.70317626 18.63113049 -13.38176866 17.2830709 -12 16 C-12.350625 15.505 -12.70125 15.01 -13.0625 14.5 C-14.43991935 10.82688174 -14.16060558 7.72615475 -13 4 C-9.37954957 -0.38842476 -5.38227674 -1.04383549 0 0 Z M-8.25 4.6875 C-10.18010547 6.86904316 -10.18010547 6.86904316 -10.4375 9.5625 C-10.15485315 11.99926829 -10.15485315 11.99926829 -8.875 13.8125 C-6.12844028 15.55198782 -4.18153026 15.39769128 -1 15 C1.08333333 14.08333333 1.08333333 14.08333333 2 12 C2.00082535 8.42243314 2.00082535 8.42243314 1 5 C-2.63308656 2.57794229 -4.62619015 1.96964262 -8.25 4.6875 Z " fill="#000000" transform="translate(20,0)"/>
</svg>
